# xmcd CD database file
#
# Track frame offsets:
#	150
#	15229
#	33540
#	61521
#	80552
#	96733
#	109413
#	124682
#	146114
#	162495
#	175271
#	190907
#
# Disc length: 2851 seconds
#
# Revision: 0
# Processed by: cddbd v1.5.2PL0 Copyright (c) Steve Scherf et al.
# Submitted via: CDex 1.51
#
DISCID=a40b210c
DTITLE=Various Artist - Fania DJ Series, Gilles Peterson [CD1]
DYEAR=2008
DGENRE=Salsa
TTITLE0=Tito Puente - Wata Wasuri
TTITLE1=Rafael Cortijo Y Su Bonche - Chinito Boogaloo
TTITLE2=Louie Ramirez - Rush Hour in Hong Kong
TTITLE3=Roberto Roena - Shades of Time
TTITLE4=Bobby Valentin - Coco Seco
TTITLE5=Eddie Palmieri - Mi Mambo Conga
TTITLE6=Johnny Colon - Ya Yi Ki
TTITLE7=Joe Bataan - Mambo de Bataan
TTITLE8=Chollo Rivera - Latin Soul Drive is Here (Progreso Del Alma Latina)
TTITLE9=Escobar and His Orchestra - Tighten Up
TTITLE10=Orchestra Harlow - Freak Off
TTITLE11=Ray Barretto - Acid
EXTD=YEAR: 2008
EXTT0=
EXTT1=
EXTT2=
EXTT3=
EXTT4=
EXTT5=
EXTT6=
EXTT7=
EXTT8=
EXTT9=
EXTT10=
EXTT11=
PLAYORDER=
